Flexion_states
version=1
nRows=15
nColumns=41
inDegrees=yes

# SIMM Motion File Header:
name Flexion_states
datacolumns 41
datarows 15
otherdata 1
range 0.00000000 1.54103067
endheader
time	/jointset/ground_thorax/thorax_tilt/value	/jointset/ground_thorax/thorax_tilt/speed	/jointset/ground_thorax/thorax_list/value	/jointset/ground_thorax/thorax_list/speed	/jointset/ground_thorax/thorax_rotation/value	/jointset/ground_thorax/thorax_rotation/speed	/jointset/ground_thorax/thorax_tx/value	/jointset/ground_thorax/thorax_tx/speed	/jointset/ground_thorax/thorax_ty/value	/jointset/ground_thorax/thorax_ty/speed	/jointset/ground_thorax/thorax_tz/value	/jointset/ground_thorax/thorax_tz/speed	/jointset/sternoclavicular/sternoclavicular_r2/value	/jointset/sternoclavicular/sternoclavicular_r2/speed	/jointset/sternoclavicular/sternoclavicular_r3/value	/jointset/sternoclavicular/sternoclavicular_r3/speed	/jointset/unrotscap/unrotscap_r3/value	/jointset/unrotscap/unrotscap_r3/speed	/jointset/unrotscap/unrotscap_r2/value	/jointset/unrotscap/unrotscap_r2/speed	/jointset/acromioclavicular/acromioclavicular_r2/value	/jointset/acromioclavicular/acromioclavicular_r2/speed	/jointset/acromioclavicular/acromioclavicular_r3/value	/jointset/acromioclavicular/acromioclavicular_r3/speed	/jointset/acromioclavicular/acromioclavicular_r1/value	/jointset/acromioclavicular/acromioclavicular_r1/speed	/jointset/unrothum/unrothum_r1/value	/jointset/unrothum/unrothum_r1/speed	/jointset/unrothum/unrothum_r3/value	/jointset/unrothum/unrothum_r3/speed	/jointset/unrothum/unrothum_r2/value	/jointset/unrothum/unrothum_r2/speed	/jointset/shoulder0/elv_angle/value	/jointset/shoulder0/elv_angle/speed	/jointset/shoulder1/shoulder_elv/value	/jointset/shoulder1/shoulder_elv/speed	/jointset/shoulder1/shoulder1_r2/value	/jointset/shoulder1/shoulder1_r2/speed	/jointset/shoulder2/shoulder_rot/value	/jointset/shoulder2/shoulder_rot/speed
      0.00000000	      0.00000000	      0.00000000	      0.00000000	      0.00000000	      0.00000000	      0.00000000	      0.00000000	      0.00000000	      0.00000000	      0.00000000	      0.00000000	      0.00000000	      0.00000000	      0.00000000	     -0.00000000	      0.00000000	      0.00000000	      0.00000000	     -0.00000000	      0.00000000	      0.00000000	      0.00000000	     -0.00000000	      0.00000000	     -0.00000000	      0.00000000	      0.00000000	      0.00000000	      0.00000000	      0.00000000	     -0.00000000	      0.00000000	     90.00000000	      0.00000000	     -0.00000000	      0.00000000	    -90.00000000	      0.00000000	      0.00000000	      0.00000000
      0.01000000	      0.00000000	      0.00000000	      0.00000000	      0.00000000	      0.00000000	      0.00000000	      0.00000000	      0.00000000	      0.00000000	      0.00000000	     -0.00000000	     -0.00000000	     -0.00065555	     -0.13108835	      0.00027766	      0.05552279	     -0.00027766	     -0.05552279	      0.00065555	      0.13108835	     -0.00013273	     -0.02654252	      0.00107269	      0.21450445	      0.00048218	      0.09642044	     -0.00048218	     -0.09642044	     -0.00107269	     -0.21450445	      0.00013273	      0.02654252	     90.00000000	     -0.00000000	      0.00270889	      0.54169253	    -90.00000000	     -0.00000000	     -0.00000000	     -0.00000000
      0.06000000	      0.00000000	      0.00000000	      0.00000000	     -0.00000000	     -0.00000000	     -0.00000000	      0.00000000	      0.00000000	     -0.00000000	     -0.00000000	     -0.00000000	     -0.00000000	     -0.02356236	     -0.78466609	      0.00997990	      0.33234726	     -0.00997990	     -0.33234726	      0.02356236	      0.78466609	     -0.00477086	     -0.15887770	      0.03855592	      1.28397654	      0.01733101	      0.57715160	     -0.01733101	     -0.57715160	     -0.03855592	     -1.28397654	      0.00477086	      0.15887770	     90.00000000	      0.00000000	      0.09736606	      3.24245257	    -90.00000000	      0.00000000	     -0.00000000	     -0.00000000
      0.31000000	      0.00000000	      0.00000000	     -0.00000000	     -0.00000000	     -0.00000000	     -0.00000000	      0.00000000	      0.00000000	     -0.00000000	     -0.00000000	     -0.00000000	     -0.00000000	     -0.62397942	     -4.00553742	      0.26428802	      1.69655526	     -0.26428802	     -1.69655526	      0.62397942	      4.00553742	     -0.12634217	     -0.81103360	      1.02103932	      6.55440082	      0.45896047	      2.94622435	     -0.45896047	     -2.94622435	     -1.02103932	     -6.55440082	      0.12634217	      0.81103360	     90.00000000	      0.00000000	      2.57845175	     16.55196426	    -90.00000000	     -0.00000000	      0.00000000	      0.00000000
      0.67330926	      0.00000000	      0.00000000	     -0.00000000	     -0.00000000	     -0.00000000	     -0.00000000	      0.00000000	      0.00000000	     -0.00000000	     -0.00000000	     -0.00000000	     -0.00000000	     -2.90869940	     -8.54271418	      1.23198681	      3.61828768	     -1.23198681	     -3.61828768	      2.90869940	      8.54271418	     -0.58894793	     -1.72971253	      4.75960645	     13.97874168	      2.13945848	      6.28348956	     -2.13945848	     -6.28348956	     -4.75960645	    -13.97874168	      0.58894793	      1.72971253	     90.00000000	      0.00000000	     12.01953283	     35.30080614	    -90.00000000	      0.00000000	      0.00000000	      0.00000000
      0.81005926	      0.00000000	      0.00000000	     -0.00000000	     -0.00000000	     -0.00000000	     -0.00000000	      0.00000000	      0.00000000	     -0.00000000	     -0.00000000	     -0.00000000	     -0.00000000	     -4.19082834	    -10.20435376	      1.77503569	      4.32207923	     -1.77503569	     -4.32207923	      4.19082834	     10.20435376	     -0.84855096	     -2.06615816	      6.85759884	     16.69774058	      3.08251284	      7.50568835	     -3.08251284	     -7.50568835	     -6.85759884	    -16.69774058	      0.84855096	      2.06615816	     90.00000000	     -0.00000000	     17.31763650	     42.16715041	    -90.00000000	      0.00000000	      0.00000000	      0.00000000
      0.90992449	      0.00000000	      0.00000000	     -0.00000000	     -0.00000000	     -0.00000000	     -0.00000000	      0.00000000	      0.00000000	     -0.00000000	     -0.00000000	     -0.00000000	     -0.00000000	     -5.26976067	    -11.40100006	      2.23202014	      4.82892172	     -2.23202014	     -4.82892172	      5.26976067	     11.40100006	     -1.06701113	     -2.30845282	      8.62309350	     18.65585472	      3.87610840	      8.38586698	     -3.87610840	     -8.38586698	     -8.62309350	    -18.65585472	      1.06701113	      2.30845282	     90.00000000	      0.00000000	     21.77607678	     47.11201664	    -90.00000000	     -0.00000000	      0.00000000	      0.00000000
      1.01838245	      0.00000000	      0.00000000	     -0.00000000	     -0.00000000	     -0.00000000	     -0.00000000	      0.00000000	      0.00000000	     -0.00000000	     -0.00000000	     -0.00000000	     -0.00000000	     -6.57601752	    -12.68377598	      2.78528846	      5.37224463	     -2.78528846	     -5.37224463	      6.57601752	     12.68377598	     -1.33149953	     -2.56818686	     10.76056722	     20.75490579	      4.83690974	      9.32939722	     -4.83690974	     -9.32939722	    -10.76056722	    -20.75490579	      1.33149953	      2.56818686	     90.00000000	     -0.00000000	     27.17388346	     52.41279381	    -90.00000000	     -0.00000000	      0.00000000	      0.00000000
      1.12939026	      0.00000000	      0.00000000	     -0.00000000	     -0.00000000	     -0.00000000	     -0.00000000	      0.00000000	      0.00000000	     -0.00000000	     -0.00000000	     -0.00000000	     -0.00000000	     -8.05596099	    -13.97582595	      3.41212217	      5.91949559	     -3.41212217	     -5.91949559	      8.05596099	     13.97582595	     -1.63115567	     -2.82979868	     13.18225043	     22.86913229	      5.92546416	     10.27974887	     -5.92546416	    -10.27974887	    -13.18225043	    -22.86913229	      1.63115567	      2.82979868	     90.00000000	     -0.00000000	     33.28941026	     57.75189384	    -90.00000000	     -0.00000000	      0.00000000	      0.00000000
      1.22503825	      0.00000000	      0.00000000	     -0.00000000	     -0.00000000	     -0.00000000	     -0.00000000	      0.00000000	      0.00000000	     -0.00000000	     -0.00000000	     -0.00000000	     -0.00000000	     -9.44488120	    -15.05881501	      4.00040275	      6.37819828	     -4.00040275	     -6.37819828	      9.44488120	     15.05881501	     -1.91238160	     -3.04908025	     15.45498910	     24.64126513	      6.94706754	     11.07632830	     -6.94706754	    -11.07632830	    -15.45498910	    -24.64126513	      1.91238160	      3.04908025	     90.00000000	      0.00000000	     39.02880434	     62.22709763	    -90.00000000	     -0.00000000	      0.00000000	      0.00000000
      1.30239525	      0.00000000	      0.00000000	     -0.00000000	     -0.00000000	     -0.00000000	     -0.00000000	      0.00000000	      0.00000000	     -0.00000000	     -0.00000000	     -0.00000000	     -0.00000000	    -10.64185639	    -15.87064626	      4.50738455	      6.72205141	     -4.50738455	     -6.72205141	     10.64185639	     15.87064626	     -2.15474286	     -3.21345829	     17.41364142	     25.96969296	      7.82748809	     11.67346090	     -7.82748809	    -11.67346090	    -17.41364142	    -25.96969296	      2.15474286	      3.21345829	     90.00000000	      0.00000000	     43.97502965	     65.58180397	    -90.00000000	     -0.00000000	      0.00000000	      0.00000000
      1.36740945	      0.00000000	      0.00000000	     -0.00000000	     -0.00000000	     -0.00000000	     -0.00000000	      0.00000000	      0.00000000	     -0.00000000	     -0.00000000	     -0.00000000	     -0.00000000	    -11.69237199	    -16.40970767	      4.95233302	      6.95037220	     -4.95233302	     -6.95037220	     11.69237199	     16.40970767	     -2.36744926	     -3.32260642	     19.13263680	     26.85177798	      8.60018207	     12.06996097	     -8.60018207	    -12.06996097	    -19.13263680	    -26.85177798	      2.36744926	      3.32260642	     90.00000000	      0.00000000	     48.31604431	     67.80935155	    -90.00000000	     -0.00000000	      0.00000000	      0.00000000
      1.42528319	      0.00000000	      0.00000000	     -0.00000000	     -0.00000000	     -0.00000000	     -0.00000000	      0.00000000	      0.00000000	     -0.00000000	     -0.00000000	     -0.00000000	     -0.00000000	    -12.64952482	    -16.59960276	      5.35773747	      7.03080273	     -5.35773747	     -7.03080273	     12.64952482	     16.59960276	     -2.56125175	     -3.36105602	     20.69885941	     27.16250995	      9.30420419	     12.20963600	     -9.30420419	    -12.20963600	    -20.69885941	    -27.16250995	      2.56125175	      3.36105602	     90.00000000	      0.00000000	     52.27125874	     68.59404943	    -90.00000000	     -0.00000000	      0.00000000	      0.00000000
      1.48315693	      0.00000000	      0.00000000	     -0.00000000	     -0.00000000	     -0.00000000	     -0.00000000	      0.00000000	      0.00000000	     -0.00000000	     -0.00000000	     -0.00000000	     -0.00000000	    -13.60241379	    -16.19479535	      5.76133594	      6.85934556	     -5.76133594	     -6.85934556	     13.60241379	     16.19479535	     -2.75419089	     -3.27909139	     22.25810493	     26.50010945	     10.00509009	     11.91188483	    -10.00509009	    -11.91188483	    -22.25810493	    -26.50010945	      2.75419089	      3.27909139	     90.00000000	      0.00000000	     56.20885378	     66.92127572	    -90.00000000	     -0.00000000	      0.00000000	      0.00000000
      1.54103067	      0.00000000	      0.00000000	     -0.00000000	     -0.00000000	     -0.00000000	     -0.00000000	      0.00000000	      0.00000000	     -0.00000000	     -0.00000000	     -0.00000000	      0.00000000	    -14.50330974	    -14.71407698	      6.14291265	      6.23218363	     -6.14291265	     -6.23218363	     14.50330974	     14.71407698	     -2.93660259	     -2.97927834	     23.73227244	     24.07715824	     10.66773315	     10.82276043	    -10.66773315	    -10.82276043	    -23.73227244	    -24.07715824	      2.93660259	      2.97927834	     90.00000000	      0.00000000	     59.93159955	     60.80254681	    -90.00000000	     -0.00000000	      0.00000000	      0.00000000
